<?xml version="1.0" encoding="utf-8"?>
<!-- Generator: Adobe Illustrator 16.0.0, SVG Export Plug-In . SVG Version: 6.00 Build 0)  -->
<!DOCTYPE svg PUBLIC "-//W3C//DTD SVG 1.1//EN" "http://www.w3.org/Graphics/SVG/1.1/DTD/svg11.dtd">
<svg version="1.1" id="레이어_1" xmlns="http://www.w3.org/2000/svg" xmlns:xlink="http://www.w3.org/1999/xlink" x="0px"
	 y="0px" width="598.69px" height="598.69px" viewBox="0 0 598.69 598.69" enable-background="new 0 0 598.69 598.69"
	 xml:space="preserve">
<g>
	<path fill-rule="evenodd" clip-rule="evenodd" fill="#FF648D" d="M299.481,212.056c-22.145-0.053-40.168,17.762-40.283,39.817
		c-0.113,21.912,18.002,40.291,39.84,40.419c22.293,0.131,40.33-17.844,40.352-40.213
		C339.409,229.823,321.747,212.109,299.481,212.056z"/>
	<path fill-rule="evenodd" clip-rule="evenodd" fill="#FF648D" d="M299.346,0C134.021,0,0,134.021,0,299.345
		C0,464.669,134.021,598.69,299.346,598.69c165.323,0,299.345-134.021,299.345-299.346C598.69,134.021,464.669,0,299.346,0z
		 M392.798,258.952c-3.365,39.398-24.715,66.592-61.535,81.203c-3.941,1.563-5.59,3.201-5.135,7.36
		c0.338,3.095,0.066,6.255,0.066,9.956c8.709,0,16.984-0.012,25.26,0.004c8.697,0.018,12.525,3.766,12.566,12.402
		c0.045,9.666,0.043,19.332,0,28.998c-0.037,8.219-4.008,12.184-12.309,12.25c-8.303,0.064-16.605,0.014-25.518,0.014
		c0,6.246,0.047,11.727-0.012,17.206c-0.08,7.25-3.615,11.432-10.818,11.661c-10.654,0.34-21.334,0.328-31.99,0.007
		c-7.189-0.217-10.594-4.31-10.672-11.725c-0.059-5.479-0.012-10.958-0.012-17.148c-8.152,0-15.928,0.005-23.703-0.001
		c-10.959-0.009-13.958-2.998-13.959-13.91c-0.002-9.332-0.023-18.664,0.007-27.997c0.027-8.227,3.595-11.727,11.964-11.754
		c8.303-0.027,16.605-0.007,25.629-0.007c0-4.813,0.322-9.273-0.199-13.633c-0.152-1.266-2.553-2.676-4.195-3.29
		c-26.943-10.069-45.944-28.305-56.378-55.126c-21.953-56.429,15.835-119.157,75.955-126.308
		C346.794,152.101,397.831,200.017,392.798,258.952z"/>
</g>
</svg>
