<?xml version="1.0" encoding="utf-8"?>
<!-- Generator: Adobe Illustrator 16.0.0, SVG Export Plug-In . SVG Version: 6.00 Build 0)  -->
<!DOCTYPE svg PUBLIC "-//W3C//DTD SVG 1.1//EN" "http://www.w3.org/Graphics/SVG/1.1/DTD/svg11.dtd">
<svg version="1.1" id="레이어_1" xmlns="http://www.w3.org/2000/svg" xmlns:xlink="http://www.w3.org/1999/xlink" x="0px"
	 y="0px" width="598.69px" height="598.69px" viewBox="0 0 598.69 598.69" enable-background="new 0 0 598.69 598.69"
	 xml:space="preserve">
<circle fill-rule="evenodd" clip-rule="evenodd" fill="#FF648D" cx="299.345" cy="299.345" r="299.345"/>
<g>
	<path fill="#FFFFFF" d="M271.788,204.214h58.623v30.781H173.292v-30.781h59.807v-35.18h38.689V204.214z M320.748,314.447
		c0,38.101-29.025,64.782-68.004,64.782c-39.298,0-68.607-26.681-68.607-64.782c0-37.525,29.31-64.206,68.607-64.206
		C291.723,250.241,320.748,276.922,320.748,314.447z M284.099,314.447c0-20.236-13.201-32.837-31.354-32.837
		c-18.18,0-31.672,12.601-31.672,33.125s13.492,32.837,31.672,32.837C270.897,347.572,284.099,335.26,284.099,314.447z
		 M425.398,301.833h-38.69v132.512h-38.69v-270h38.69v105.544h38.69V301.833z"/>
</g>
</svg>
