<?xml version="1.0" encoding="utf-8"?>
<!-- Generator: Adobe Illustrator 16.0.0, SVG Export Plug-In . SVG Version: 6.00 Build 0)  -->
<!DOCTYPE svg PUBLIC "-//W3C//DTD SVG 1.1//EN" "http://www.w3.org/Graphics/SVG/1.1/DTD/svg11.dtd">
<svg version="1.1" id="레이어_1" xmlns="http://www.w3.org/2000/svg" xmlns:xlink="http://www.w3.org/1999/xlink" x="0px"
	 y="0px" width="598.691px" height="598.69px" viewBox="0 0 598.691 598.69" enable-background="new 0 0 598.691 598.69"
	 xml:space="preserve">
<g>
	<path fill-rule="evenodd" clip-rule="evenodd" fill="#32AAFF" d="M260.301,299.158c-22.774-0.436-41.564,17.712-41.96,40.525
		c-0.397,22.881,17.631,41.677,40.39,42.109c22.924,0.438,41.648-17.436,42.192-40.272
		C301.474,318.411,283.436,299.601,260.301,299.158z"/>
	<path fill-rule="evenodd" clip-rule="evenodd" fill="#32AAFF" d="M299.346,0C134.021,0,0,134.021,0,299.345
		C0,464.669,134.021,598.69,299.346,598.69c165.324,0,299.345-134.021,299.345-299.346C598.691,134.021,464.669,0,299.346,0z
		 M434.793,287.365c-0.015,7.498-3.993,11.34-11.508,11.409c-10.499,0.097-20.999,0.094-31.498,0.002
		c-7.521-0.065-11.301-3.815-11.421-11.45c-0.144-9.148-0.033-18.302-0.033-28.16c-12.366,12.497-24.035,24.29-35.859,36.24
		c24.889,48.571,5.084,101.004-32.6,125.441c-38.402,24.903-89.656,19.105-121.281-13.948c-31.992-33.437-35.7-84.535-8.909-122.111
		c26.9-37.729,78.616-52.158,123.075-28.938c12.819-12.875,25.569-25.681,38.55-38.718c-1.354-0.101-2.893-0.31-4.433-0.315
		c-9.999-0.029-19.999,0.022-29.999-0.028c-8.282-0.042-11.998-3.691-12.034-11.815c-0.047-10.333-0.055-20.666,0.003-30.999
		c0.042-7.458,3.997-11.487,11.385-11.494c38.333-0.035,76.665-0.035,114.997,0c7.422,0.007,11.545,3.94,11.561,11.388
		C434.87,211.7,434.867,249.532,434.793,287.365z"/>
</g>
</svg>
