<?xml version="1.0" encoding="utf-8"?>
<!-- Generator: Adobe Illustrator 16.0.0, SVG Export Plug-In . SVG Version: 6.00 Build 0)  -->
<!DOCTYPE svg PUBLIC "-//W3C//DTD SVG 1.1//EN" "http://www.w3.org/Graphics/SVG/1.1/DTD/svg11.dtd">
<svg version="1.1" id="레이어_1" xmlns="http://www.w3.org/2000/svg" xmlns:xlink="http://www.w3.org/1999/xlink" x="0px"
	 y="0px" width="598.69px" height="598.69px" viewBox="0 0 598.69 598.69" enable-background="new 0 0 598.69 598.69"
	 xml:space="preserve">
<circle fill-rule="evenodd" clip-rule="evenodd" fill="#32AAFF" cx="299.345" cy="299.345" r="299.345"/>
<g>
	<path fill="#FFFFFF" d="M187.503,356.664c49.266,0,114.344,0.278,171.22-7.326l2.635,28.127
		c-59.813,11.144-121.391,10.861-169.151,10.561L187.503,356.664z M354.888,227.375H193.09v-30.186h61.256v-29.625h38.69v29.625
		h61.852V227.375z M274.268,237.935c38.698,0,66.253,20.522,66.253,51.29c0,30.208-27.555,51.01-66.253,51.01
		c-38.968,0-66.536-20.801-66.536-51.01C207.731,258.457,235.3,237.935,274.268,237.935z M274.268,267.244
		c-17.858,0-29.903,7.628-29.903,21.98c0,14.073,12.045,21.699,29.903,21.699c17.61,0,29.635-7.626,29.635-21.699
		C303.902,274.873,291.878,267.244,274.268,267.244z M411.188,164.345v270h-38.692v-270H411.188z"/>
</g>
</svg>
