<?xml version="1.0" encoding="utf-8"?>
<!-- Generator: Adobe Illustrator 16.0.0, SVG Export Plug-In . SVG Version: 6.00 Build 0)  -->
<!DOCTYPE svg PUBLIC "-//W3C//DTD SVG 1.1//EN" "http://www.w3.org/Graphics/SVG/1.1/DTD/svg11.dtd">
<svg version="1.1" id="레이어_1" xmlns="http://www.w3.org/2000/svg" xmlns:xlink="http://www.w3.org/1999/xlink" x="0px"
	 y="0px" width="261.412px" height="181.365px" viewBox="0 0 261.412 181.365" enable-background="new 0 0 261.412 181.365"
	 xml:space="preserve">
<path fill="#4D4D4D" d="M261.412,169.365c0,6.627-5.372,12-12,12H12c-6.628,0-12-5.373-12-12V12C0,5.373,5.372,0,12,0h237.412
	c6.628,0,12,5.373,12,12V169.365z"/>
<g>
	<path fill="#FFFFFF" d="M36.358,115.961l11.541-61.146h12.401l-4.651,24.372l0.173,0.086c3.444-3.875,7.837-6.373,13.435-6.373
		c6.545,0,10.593,4.134,10.593,11.368c0,1.981-0.345,5.167-0.775,7.579l-4.563,24.113H62.108l4.307-23.08
		c0.345-1.637,0.603-3.445,0.603-5.254c0-2.756-1.205-4.736-4.306-4.736c-4.307,0-8.698,5.254-10.335,13.779l-3.617,19.291H36.358z"
		/>
	<path fill="#FFFFFF" d="M106.462,73.848l-7.664,40.649c-1.292,7.233-3.101,11.884-5.856,14.985c-2.756,3.1-7.147,4.478-11.54,4.478
		c-1.895,0-3.962-0.172-5.942-0.688l1.464-9.388c0.861,0.173,1.637,0.259,2.756,0.259c2.842,0,5.254-1.465,6.632-9.043l7.751-41.252
		H106.462z M95.438,62.566c0-4.221,3.273-7.063,7.148-7.063c3.617,0,6.201,2.412,6.201,6.115c0,4.392-3.359,6.976-7.32,6.976
		C97.937,68.595,95.438,66.27,95.438,62.566z"/>
	<path fill="#FFFFFF" d="M108.529,115.961l11.713-61.146h12.401l-11.713,61.146H108.529z"/>
	<path fill="#FFFFFF" d="M175.791,90.211c0,15.416-10.507,26.697-25.147,26.697c-10.679,0-17.826-6.976-17.826-17.396
		c0-14.641,10.162-26.611,25.146-26.611C169.246,72.9,175.791,80.651,175.791,90.211z M145.649,99.254
		c0,4.908,2.411,8.182,6.717,8.182c6.804,0,10.593-9.904,10.593-17.139c0-3.875-1.636-8.01-6.631-8.01
		C149.18,82.287,145.563,92.709,145.649,99.254z"/>
	<path fill="#FFFFFF" d="M182.681,121.817c2.326,1.378,7.493,2.325,11.023,2.325c6.201,0,10.852-2.756,12.574-11.195l0.688-3.531
		h-0.172c-3.272,4.22-7.062,6.2-12.057,6.2c-8.354,0-13.436-6.804-13.521-14.985c0-13.951,9.904-27.73,28.248-27.73
		c5.942,0,11.195,1.033,15.588,2.928l-6.373,34.707c-1.464,7.751-3.789,14.641-8.87,18.688c-4.564,3.617-10.68,4.736-16.277,4.736
		s-10.852-1.033-13.693-2.669L182.681,121.817z M211.617,83.148c-0.947-0.43-2.756-0.774-4.478-0.774
		c-7.493,0-12.832,8.354-12.832,16.362c0,4.221,1.895,7.32,5.684,7.32c4.048,0,8.182-4.479,9.474-11.626L211.617,83.148z"/>
</g>
</svg>
