<?xml version="1.0" encoding="utf-8"?>
<!-- Generator: Adobe Illustrator 16.0.0, SVG Export Plug-In . SVG Version: 6.00 Build 0)  -->
<!DOCTYPE svg PUBLIC "-//W3C//DTD SVG 1.1//EN" "http://www.w3.org/Graphics/SVG/1.1/DTD/svg11.dtd">
<svg version="1.1" id="레이어_1" xmlns="http://www.w3.org/2000/svg" xmlns:xlink="http://www.w3.org/1999/xlink" x="0px"
	 y="0px" width="261.356px" height="221.333px" viewBox="0 0 261.356 221.333" enable-background="new 0 0 261.356 221.333"
	 xml:space="preserve">
<g>
	<path fill="#4D4D4D" d="M261.356,190.687c0,16.927-13.721,30.646-30.646,30.646H30.646C13.721,221.333,0,207.613,0,190.687V30.646
		C0,13.721,13.721,0,30.646,0h200.065c16.925,0,30.646,13.721,30.646,30.646V190.687z"/>
	<path fill="#FFFFFF" d="M110.667,68.791c-9.035,0-17.289,3.392-23.569,8.962V40.125h-12V151.64h12V104.36
		c0-12.996,10.573-23.569,23.569-23.569s23.568,10.573,23.568,23.569h12C146.235,84.747,130.279,68.791,110.667,68.791z"/>
	<g>
		<path fill="#B3B3B3" d="M110.667,187.208v-12c12.996,0,23.568-10.572,23.568-23.568V104.36h12v47.279
			C146.235,171.252,130.279,187.208,110.667,187.208z"/>
	</g>
	<circle fill="#B3B3B3" cx="140.236" cy="47.99" r="7.866"/>
	<g>
		<path fill="#FFFFFF" d="M154.295,119.626h3.968v32.014h-3.968V119.626z"/>
		<path fill="#FFFFFF" d="M184.685,140.548c0,8.07-5.591,11.588-10.867,11.588c-5.906,0-10.46-4.329-10.46-11.228
			c0-7.305,4.779-11.588,10.821-11.588C180.446,129.32,184.685,133.874,184.685,140.548z M167.37,140.773
			c0,4.779,2.75,8.387,6.628,8.387c3.788,0,6.628-3.563,6.628-8.478c0-3.697-1.849-8.387-6.538-8.387
			C169.399,132.296,167.37,136.625,167.37,140.773z"/>
		<path fill="#FFFFFF" d="M208.491,129.816c-0.09,1.578-0.18,3.337-0.18,5.997v12.67c0,5.005-0.992,8.071-3.111,9.965
			c-2.119,1.984-5.186,2.615-7.937,2.615c-2.615,0-5.501-0.631-7.259-1.804l0.992-3.021c1.442,0.901,3.697,1.713,6.402,1.713
			c4.058,0,7.034-2.119,7.034-7.62v-2.435h-0.091c-1.217,2.028-3.562,3.652-6.943,3.652c-5.411,0-9.288-4.6-9.288-10.642
			c0-7.395,4.824-11.588,9.829-11.588c3.787,0,5.861,1.983,6.809,3.787h0.09l0.181-3.291H208.491z M204.389,138.429
			c0-0.677-0.046-1.263-0.226-1.804c-0.722-2.3-2.66-4.193-5.546-4.193c-3.788,0-6.493,3.201-6.493,8.251
			c0,4.284,2.164,7.846,6.447,7.846c2.436,0,4.645-1.533,5.501-4.058c0.226-0.677,0.316-1.443,0.316-2.119V138.429z"/>
	</g>
</g>
</svg>
